<svg width="256" height="256" viewBox="0 0 256 256" fill="none" xmlns="http://www.w3.org/2000/svg">
<path d="M255.879 127.868C255.879 198.323 198.768 255.433 128.312 255.433C57.8622 255.433 0.746124 198.323 0.746124 127.868C0.746124 57.4179 57.8622 0.301819 128.312 0.301819C198.768 0.301819 255.879 57.4179 255.879 127.868Z" fill="#1A1918"/>
<path d="M130.46 78.2289L163.471 159.705L113.608 120.427L130.46 78.2289ZM189.104 178.474L138.326 56.2721C136.876 52.7477 133.978 50.8828 130.46 50.8828C126.936 50.8828 123.826 52.7477 122.376 56.2721L66.6436 190.312H85.7089L107.771 135.047L173.61 188.237C176.258 190.378 178.169 191.347 180.652 191.347C185.626 191.347 189.974 187.618 189.974 182.236C189.974 181.36 189.664 179.969 189.104 178.474Z" fill="white"/>
</svg>
