<svg width="300" height="300" viewBox="0 0 300 300" fill="none" xmlns="http://www.w3.org/2000/svg">
<g clip-path="url(#clip0_5_26)">
<path d="M150 300C67.1573 300 0 232.843 0 150C0 67.1573 67.1573 0 150 0C232.843 0 300 67.1573 300 150C300 232.843 232.843 300 150 300Z" fill="#0D1117"/>
<mask id="mask0_5_26" style="mask-type:luminance" maskUnits="userSpaceOnUse" x="50" y="90" width="200" height="120">
<path d="M250 90H50V209.531H250V90Z" fill="white"/>
</mask>
<g mask="url(#mask0_5_26)">
<mask id="mask1_5_26" style="mask-type:luminance" maskUnits="userSpaceOnUse" x="50" y="90" width="200" height="120">
<path d="M250 90H50V209.531H250V90Z" fill="white"/>
</mask>
<g mask="url(#mask1_5_26)">
<path d="M106.556 133.311C106.556 135.762 106.821 137.748 107.285 139.205C107.815 140.662 108.477 142.252 109.404 143.973C109.735 144.503 109.868 145.033 109.868 145.497C109.868 146.159 109.47 146.821 108.609 147.483L104.437 150.265C103.841 150.662 103.245 150.861 102.715 150.861C102.053 150.861 101.391 150.53 100.728 149.934C99.8014 148.94 99.0067 147.881 98.3444 146.821C97.6822 145.696 97.0198 144.437 96.2914 142.914C91.1259 149.007 84.6358 152.053 76.8212 152.053C71.2583 152.053 66.8213 150.464 63.5763 147.285C60.3311 144.106 58.6755 139.868 58.6755 134.57C58.6755 128.94 60.6623 124.371 64.702 120.927C68.7417 117.483 74.1059 115.762 80.9272 115.762C83.1789 115.762 85.4967 115.96 87.947 116.291C90.3973 116.623 92.9139 117.152 95.563 117.748V112.914C95.563 107.881 94.5033 104.371 92.4503 102.318C90.3311 100.265 86.755 99.2716 81.6556 99.2716C79.3378 99.2716 76.9538 99.5364 74.5033 100.132C72.053 100.728 69.6689 101.457 67.3511 102.384C66.2914 102.848 65.4967 103.113 65.0331 103.245C64.5695 103.378 64.2384 103.444 63.9736 103.444C63.0464 103.444 62.5828 102.782 62.5828 101.391V98.1458C62.5828 97.0861 62.7153 96.2914 63.0464 95.8278C63.3775 95.3643 63.9736 94.9007 64.9006 94.4371C67.2186 93.245 70 92.2518 73.245 91.4571C76.4902 90.5961 79.9338 90.1988 83.5763 90.1988C91.457 90.1988 97.2186 91.9868 100.927 95.563C104.57 99.1391 106.424 104.57 106.424 111.854V133.311H106.556ZM79.6689 143.378C81.8544 143.378 84.1059 142.98 86.4902 142.185C88.8742 141.391 90.9934 139.934 92.7816 137.947C93.8411 136.689 94.6358 135.298 95.0331 133.709C95.4305 132.119 95.6955 130.199 95.6955 127.947V125.166C93.7748 124.702 91.7219 124.305 89.6027 124.04C87.4834 123.775 85.4305 123.643 83.3775 123.643C78.9405 123.643 75.6955 124.503 73.51 126.291C71.3245 128.079 70.265 130.596 70.265 133.907C70.265 137.02 71.0597 139.338 72.7153 140.927C74.3047 142.583 76.6225 143.378 79.6689 143.378ZM132.848 150.53C131.655 150.53 130.861 150.331 130.331 149.868C129.802 149.47 129.338 148.543 128.941 147.285L113.378 96.0927C112.98 94.7683 112.782 93.9074 112.782 93.4438C112.782 92.3841 113.311 91.7882 114.371 91.7882H120.861C122.119 91.7882 122.98 91.9868 123.444 92.4503C123.974 92.8477 124.371 93.7749 124.768 95.0332L135.894 138.874L146.225 95.0332C146.556 93.7086 146.954 92.8477 147.484 92.4503C148.013 92.053 148.941 91.7882 150.133 91.7882H155.43C156.689 91.7882 157.55 91.9868 158.08 92.4503C158.609 92.8477 159.073 93.7749 159.338 95.0332L169.802 139.404L181.259 95.0332C181.655 93.7086 182.12 92.8477 182.583 92.4503C183.113 92.053 183.973 91.7882 185.166 91.7882H191.325C192.384 91.7882 192.981 92.3178 192.981 93.4438C192.981 93.7749 192.914 94.106 192.848 94.5033C192.781 94.9007 192.65 95.4305 192.384 96.1589L176.424 147.351C176.027 148.675 175.563 149.536 175.033 149.934C174.503 150.331 173.642 150.596 172.516 150.596H166.821C165.563 150.596 164.702 150.397 164.172 149.934C163.642 149.47 163.179 148.609 162.914 147.285L152.649 104.57L142.45 147.219C142.12 148.543 141.722 149.404 141.192 149.868C140.663 150.331 139.735 150.53 138.543 150.53H132.848ZM217.947 152.318C214.503 152.318 211.059 151.921 207.748 151.126C204.438 150.331 201.855 149.47 200.133 148.477C199.073 147.881 198.345 147.218 198.08 146.623C197.816 146.026 197.683 145.364 197.683 144.768V141.391C197.683 140 198.213 139.338 199.206 139.338C199.603 139.338 200 139.404 200.398 139.536C200.795 139.669 201.391 139.934 202.053 140.199C204.305 141.192 206.755 141.987 209.338 142.517C211.988 143.046 214.57 143.311 217.219 143.311C221.391 143.311 224.636 142.583 226.888 141.126C229.139 139.669 230.331 137.55 230.331 134.834C230.331 132.98 229.736 131.457 228.544 130.199C227.352 128.94 225.1 127.815 221.855 126.755L212.252 123.775C207.417 122.252 203.842 120 201.656 117.02C199.47 114.106 198.345 110.861 198.345 107.417C198.345 104.636 198.941 102.186 200.133 100.066C201.325 97.9471 202.914 96.0927 204.902 94.6358C206.888 93.1127 209.139 91.9868 211.789 91.1921C214.438 90.3974 217.219 90.0663 220.133 90.0663C221.589 90.0663 223.113 90.1325 224.57 90.3311C226.094 90.5299 227.484 90.7947 228.875 91.0596C230.198 91.3908 231.458 91.7219 232.65 92.1193C233.842 92.5166 234.769 92.9139 235.431 93.3113C236.358 93.8411 237.02 94.371 237.417 94.9669C237.816 95.4968 238.014 96.2252 238.014 97.1524V100.265C238.014 101.656 237.484 102.384 236.491 102.384C235.961 102.384 235.1 102.119 233.973 101.589C230.198 99.8677 225.961 99.0066 221.259 99.0066C217.484 99.0066 214.503 99.6027 212.45 100.861C210.398 102.119 209.338 104.04 209.338 106.755C209.338 108.609 210 110.199 211.325 111.457C212.65 112.715 215.1 113.974 218.609 115.099L228.014 118.079C232.781 119.603 236.225 121.722 238.278 124.437C240.331 127.152 241.325 130.265 241.325 133.709C241.325 136.556 240.728 139.139 239.603 141.391C238.411 143.642 236.822 145.629 234.769 147.219C232.716 148.874 230.266 150.066 227.417 150.927C224.438 151.854 221.325 152.318 217.947 152.318Z" fill="white"/>
<path d="M230.464 184.503C208.677 200.595 177.02 209.139 149.802 209.139C111.656 209.139 77.2848 195.033 51.3245 171.589C49.2716 169.735 51.1258 167.218 53.5761 168.676C81.6556 184.967 116.291 194.834 152.12 194.834C176.291 194.834 202.848 189.802 227.284 179.47C230.928 177.815 234.041 181.855 230.464 184.503ZM239.538 174.172C236.755 170.596 221.127 172.45 214.041 173.311C211.92 173.576 211.589 171.722 213.511 170.331C225.961 161.589 246.425 164.106 248.808 167.02C251.192 170 248.145 190.463 236.491 200.264C234.703 201.788 232.981 200.994 233.775 199.006C236.425 192.45 242.319 177.682 239.538 174.172Z" fill="#FF9900"/>
</g>
</g>
</g>
<defs>
<clipPath id="clip0_5_26">
<rect width="300" height="300" fill="white"/>
</clipPath>
</defs>
</svg>
