<svg width="300" height="300" viewBox="0 0 300 300" fill="none" xmlns="http://www.w3.org/2000/svg">
<g clip-path="url(#clip0_5_26)">
<path d="M150 300C67.1573 300 0 232.843 0 150C0 67.1573 67.1573 0 150 0C232.843 0 300 67.1573 300 150C300 232.843 232.843 300 150 300Z" fill="#0D1117"/>
<mask id="mask0_5_26" style="mask-type:luminance" maskUnits="userSpaceOnUse" x="12" y="68" width="275" height="165">
<path d="M287 68H12V232.355H287V68Z" fill="white"/>
</mask>
<g mask="url(#mask0_5_26)">
<mask id="mask1_5_26" style="mask-type:luminance" maskUnits="userSpaceOnUse" x="12" y="68" width="275" height="165">
<path d="M287 68H12V232.355H287V68Z" fill="white"/>
</mask>
<g mask="url(#mask1_5_26)">
<path d="M89.7651 127.553C89.7651 130.922 90.1292 133.654 90.7667 135.657C91.495 137.661 92.4057 139.846 93.6806 142.214C94.1358 142.942 94.318 143.671 94.318 144.308C94.318 145.219 93.7717 146.129 92.5879 147.04L86.8511 150.864C86.0315 151.411 85.2119 151.684 84.4836 151.684C83.5728 151.684 82.6623 151.229 81.7516 150.409C80.4769 149.043 79.3842 147.586 78.4735 146.129C77.563 144.581 76.6523 142.851 75.6507 140.757C68.5482 149.134 59.6242 153.323 48.8792 153.323C41.2301 153.323 35.1292 151.137 30.6673 146.767C26.2053 142.396 23.9288 136.568 23.9288 129.283C23.9288 121.543 26.6607 115.26 32.2153 110.525C37.7699 105.79 45.1457 103.422 54.5249 103.422C57.621 103.422 60.808 103.695 64.1772 104.151C67.5463 104.606 71.0066 105.335 74.6491 106.154V99.5067C74.6491 92.5861 73.192 87.7601 70.3692 84.9372C67.4553 82.1144 62.5381 80.7484 55.5265 80.7484C52.3395 80.7484 49.0614 81.1126 45.692 81.932C42.3228 82.7516 39.0447 83.7532 35.8578 85.0281C34.4007 85.6656 33.308 86.0297 32.6705 86.2119C32.0331 86.3941 31.5778 86.4852 31.2137 86.4852C29.9388 86.4852 29.3014 85.5747 29.3014 83.6624V79.2005C29.3014 77.7434 29.4836 76.6507 29.9388 76.0133C30.3941 75.3758 31.2137 74.7384 32.4884 74.1009C35.6756 72.4619 39.5 71.0961 43.9619 70.0034C48.424 68.8197 53.1589 68.2733 58.1673 68.2733C69.0034 68.2733 76.9256 70.7318 82.0249 75.6491C87.0331 80.5662 89.5829 88.0331 89.5829 98.0496V127.553H89.7651ZM52.7947 141.394C55.7998 141.394 58.8957 140.848 62.174 139.755C65.452 138.662 68.366 136.659 70.8246 133.927C72.2815 132.197 73.3742 130.285 73.9205 128.099C74.4669 125.914 74.8313 123.273 74.8313 120.177V116.353C72.1904 115.715 69.3676 115.169 66.4536 114.805C63.5397 114.44 60.7169 114.258 57.8941 114.258C51.7931 114.258 47.3313 115.442 44.3262 117.901C41.3212 120.359 39.8644 123.82 39.8644 128.373C39.8644 132.652 40.9571 135.839 43.2336 138.025C45.4189 140.301 48.6059 141.394 52.7947 141.394ZM125.916 151.229C124.276 151.229 123.184 150.955 122.455 150.318C121.727 149.772 121.089 148.497 120.543 146.767L99.1441 76.3774C98.5977 74.5564 98.3246 73.3726 98.3246 72.7352C98.3246 71.2781 99.053 70.4587 100.51 70.4587H109.434C111.164 70.4587 112.348 70.7318 112.985 71.3692C113.714 71.9156 114.26 73.1904 114.806 74.9206L130.104 135.202L144.309 74.9206C144.765 73.0993 145.312 71.9156 146.04 71.3692C146.768 70.8229 148.043 70.4587 149.683 70.4587H156.967C158.697 70.4587 159.881 70.7318 160.61 71.3692C161.338 71.9156 161.975 73.1904 162.339 74.9206L176.727 135.93L192.481 74.9206C193.026 73.0993 193.664 71.9156 194.301 71.3692C195.03 70.8229 196.213 70.4587 197.853 70.4587H206.322C207.779 70.4587 208.599 71.187 208.599 72.7352C208.599 73.1904 208.507 73.6457 208.417 74.192C208.324 74.7384 208.144 75.4669 207.779 76.4685L185.833 146.858C185.287 148.679 184.65 149.863 183.92 150.409C183.192 150.955 182.008 151.319 180.46 151.319H172.629C170.9 151.319 169.716 151.046 168.986 150.409C168.258 149.772 167.621 148.588 167.257 146.767L153.143 88.0331L139.119 146.676C138.664 148.497 138.118 149.681 137.389 150.318C136.661 150.955 135.386 151.229 133.747 151.229H125.916ZM242.927 153.687C238.192 153.687 233.457 153.141 228.904 152.048C224.352 150.955 220.8 149.772 218.433 148.406C216.976 147.586 215.975 146.675 215.61 145.856C215.246 145.036 215.064 144.126 215.064 143.306V138.662C215.064 136.75 215.792 135.84 217.159 135.84C217.704 135.84 218.25 135.931 218.798 136.113C219.344 136.295 220.162 136.659 221.073 137.023C224.169 138.389 227.538 139.482 231.089 140.21C234.733 140.939 238.284 141.303 241.926 141.303C247.662 141.303 252.124 140.301 255.22 138.298C258.316 136.295 259.955 133.381 259.955 129.647C259.955 127.098 259.137 125.003 257.498 123.273C255.858 121.543 252.762 119.995 248.3 118.538L235.096 114.44C228.449 112.346 223.533 109.25 220.527 105.152C217.522 101.146 215.975 96.6838 215.975 91.9487C215.975 88.1242 216.793 84.7551 218.433 81.8411C220.072 78.9272 222.257 76.3774 224.99 74.3742C227.72 72.2799 230.816 70.7318 234.46 69.6391C238.102 68.5464 241.926 68.0911 245.933 68.0911C247.935 68.0911 250.03 68.1822 252.034 68.4553C254.129 68.7286 256.041 69.0927 257.953 69.4569C259.773 69.9124 261.504 70.3676 263.144 70.914C264.783 71.4603 266.057 72.0067 266.968 72.553C268.242 73.2815 269.153 74.0101 269.699 74.8295C270.246 75.558 270.519 76.5596 270.519 77.8345V82.1144C270.519 84.0265 269.791 85.0281 268.425 85.0281C267.696 85.0281 266.512 84.664 264.963 83.9354C259.773 81.5681 253.946 80.3841 247.482 80.3841C242.291 80.3841 238.192 81.2037 235.369 82.9338C232.548 84.664 231.089 87.3046 231.089 91.0382C231.089 93.5877 232 95.7731 233.822 97.5032C235.644 99.2334 239.013 100.964 243.838 102.512L256.769 106.609C263.324 108.704 268.059 111.618 270.882 115.351C273.705 119.085 275.072 123.364 275.072 128.099C275.072 132.015 274.251 135.566 272.704 138.662C271.065 141.758 268.88 144.49 266.057 146.676C263.234 148.952 259.865 150.591 255.949 151.775C251.852 153.05 247.572 153.687 242.927 153.687Z" fill="white"/>
<path d="M260.138 197.942C230.18 220.069 186.652 231.816 149.227 231.816C96.7765 231.816 49.5167 212.42 13.8212 180.185C10.9984 177.636 13.5479 174.175 16.9171 176.179C55.5265 198.58 103.151 212.147 152.414 212.147C185.651 212.147 222.167 205.227 255.766 191.022C260.776 188.745 265.056 194.3 260.138 197.942ZM272.614 183.736C268.788 178.82 247.299 181.369 237.556 182.553C234.64 182.917 234.185 180.368 236.828 178.456C253.946 166.435 282.084 169.896 285.361 173.902C288.639 178 284.45 206.136 268.425 219.613C265.967 221.708 263.599 220.616 264.691 217.884C268.334 208.869 276.438 188.563 272.614 183.736Z" fill="#FF9900"/>
</g>
</g>
</g>
<defs>
<clipPath id="clip0_5_26">
<rect width="300" height="300" fill="white"/>
</clipPath>
</defs>
</svg>
