<svg width="150" height="150" viewBox="0 0 150 150" fill="none" xmlns="http://www.w3.org/2000/svg">
<circle cx="75" cy="75" r="75" transform="matrix(-1 0 0 1 150 0)" fill="#232F3E"/>
<g clip-path="url(#clip0_3_40)">
<mask id="mask0_3_40" style="mask-type:luminance" maskUnits="userSpaceOnUse" x="11" y="37" width="128" height="77">
<path d="M139 37H11V113.5H139V37Z" fill="white"/>
</mask>
<g mask="url(#mask0_3_40)">
<path d="M47.1961 64.7192C47.1961 66.2874 47.3656 67.5589 47.6623 68.4914C48.0013 69.4238 48.4252 70.441 49.0186 71.543C49.2305 71.8821 49.3153 72.2212 49.3153 72.5179C49.3153 72.9417 49.061 73.3655 48.51 73.7894L45.8398 75.5695C45.4583 75.8238 45.0768 75.951 44.7378 75.951C44.3139 75.951 43.8901 75.7391 43.4662 75.3576C42.8729 74.7219 42.3643 74.0437 41.9404 73.3656C41.5166 72.6451 41.0927 71.8397 40.6265 70.8649C37.3206 74.7642 33.1669 76.7139 28.1656 76.7139C24.6053 76.7139 21.7656 75.6967 19.6888 73.6623C17.6119 71.6278 16.5523 68.9152 16.5523 65.5245C16.5523 61.9218 17.8239 58.9973 20.4093 56.7934C22.9947 54.5894 26.4278 53.4874 30.7934 53.4874C32.2345 53.4874 33.7179 53.6146 35.2861 53.8265C36.8543 54.0384 38.4649 54.3775 40.1603 54.7589V51.6649C40.1603 48.4437 39.4821 46.1974 38.1682 44.8835C36.8119 43.5696 34.5232 42.9338 31.2596 42.9338C29.7762 42.9338 28.2504 43.1033 26.6821 43.4847C25.1139 43.8662 23.5881 44.3324 22.1047 44.9258C21.4265 45.2225 20.9179 45.392 20.6212 45.4768C20.3245 45.5616 20.1126 45.604 19.9431 45.604C19.3497 45.604 19.053 45.1802 19.053 44.2901V42.2133C19.053 41.5351 19.1378 41.0265 19.3497 40.7298C19.5616 40.4331 19.9431 40.1364 20.5364 39.8397C22.0199 39.0768 23.8 38.4411 25.8768 37.9325C27.9537 37.3815 30.1576 37.1272 32.4888 37.1272C37.5325 37.1272 41.2199 38.2715 43.5934 40.5603C45.9245 42.849 47.1113 46.3245 47.1113 50.9867V64.7192H47.1961ZM29.9881 71.1616C31.3868 71.1616 32.8278 70.9073 34.3537 70.3987C35.8795 69.8901 37.2358 68.9576 38.3802 67.6861C39.0583 66.8808 39.5669 65.9907 39.8212 64.9735C40.0755 63.9563 40.2451 62.7272 40.2451 61.2861V59.506C39.0159 59.2093 37.702 58.9549 36.3457 58.7854C34.9894 58.6159 33.6755 58.5312 32.3616 58.5312C29.5219 58.5312 27.4451 59.0821 26.0464 60.2265C24.6477 61.3708 23.9696 62.9815 23.9696 65.1007C23.9696 67.0927 24.4782 68.5761 25.5378 69.5934C26.555 70.653 28.0384 71.1616 29.9881 71.1616ZM64.0225 75.7391C63.2595 75.7391 62.751 75.6119 62.412 75.3153C62.073 75.061 61.776 74.4676 61.522 73.6623L51.5616 40.8993C51.3073 40.0517 51.1802 39.5007 51.1802 39.204C51.1802 38.5258 51.5192 38.1444 52.1974 38.1444H56.351C57.1563 38.1444 57.7073 38.2715 58.004 38.5682C58.3431 38.8225 58.5974 39.4159 58.8517 40.2212L65.972 68.2795L72.584 40.2212C72.796 39.3735 73.0505 38.8225 73.3895 38.5682C73.7285 38.3139 74.322 38.1444 75.085 38.1444H78.4755C79.281 38.1444 79.832 38.2715 80.171 38.5682C80.51 38.8225 80.8065 39.4159 80.976 40.2212L87.673 68.6185L95.0055 40.2212C95.2595 39.3735 95.5565 38.8225 95.853 38.5682C96.192 38.3139 96.743 38.1444 97.506 38.1444H101.448C102.126 38.1444 102.508 38.4834 102.508 39.204C102.508 39.4159 102.465 39.6278 102.423 39.8821C102.38 40.1364 102.296 40.4755 102.126 40.9417L91.9115 73.7047C91.657 74.5523 91.3605 75.1033 91.021 75.3576C90.682 75.6119 90.131 75.7814 89.4105 75.7814H85.7655C84.9605 75.7814 84.4095 75.6543 84.07 75.3576C83.731 75.061 83.4345 74.51 83.265 73.6623L76.6955 46.3245L70.168 73.6199C69.9565 74.4676 69.702 75.0186 69.363 75.3153C69.024 75.6119 68.4305 75.7391 67.6675 75.7391H64.0225ZM118.486 76.8834C116.282 76.8834 114.078 76.6291 111.959 76.1205C109.84 75.6119 108.187 75.061 107.085 74.4252C106.407 74.0437 105.941 73.6198 105.771 73.2384C105.602 72.8569 105.517 72.4331 105.517 72.0517V69.89C105.517 69 105.856 68.5762 106.492 68.5762C106.746 68.5762 107 68.6186 107.255 68.7033C107.509 68.7881 107.89 68.9576 108.314 69.1272C109.755 69.7629 111.323 70.2715 112.976 70.6106C114.672 70.9496 116.325 71.1192 118.02 71.1192C120.69 71.1192 122.767 70.653 124.208 69.7206C125.649 68.7881 126.412 67.4318 126.412 65.694C126.412 64.5073 126.031 63.5324 125.268 62.7271C124.505 61.9218 123.064 61.2013 120.987 60.5232L114.841 58.6159C111.747 57.6411 109.459 56.2 108.06 54.2927C106.661 52.4278 105.941 50.351 105.941 48.147C105.941 46.3669 106.322 44.7987 107.085 43.4424C107.848 42.0861 108.865 40.8993 110.137 39.9669C111.408 38.9921 112.849 38.2715 114.545 37.7629C116.24 37.2543 118.02 37.0424 119.885 37.0424C120.817 37.0424 121.792 37.0848 122.725 37.2119C123.7 37.3391 124.59 37.5086 125.48 37.6781C126.327 37.8901 127.133 38.102 127.896 38.3563C128.659 38.6106 129.252 38.8649 129.676 39.1192C130.269 39.4583 130.693 39.7974 130.947 40.1788C131.202 40.5179 131.329 40.9841 131.329 41.5775V43.5696C131.329 44.4596 130.99 44.9258 130.354 44.9258C130.015 44.9258 129.464 44.7563 128.743 44.4172C126.327 43.3153 123.615 42.7642 120.606 42.7642C118.19 42.7642 116.282 43.1457 114.968 43.951C113.655 44.7563 112.976 45.9854 112.976 47.7232C112.976 48.9099 113.4 49.9271 114.248 50.7324C115.096 51.5377 116.664 52.3431 118.91 53.0636L124.929 54.9708C127.98 55.9457 130.184 57.302 131.498 59.0397C132.812 60.7775 133.448 62.7695 133.448 64.9735C133.448 66.796 133.066 68.449 132.346 69.89C131.583 71.3311 130.566 72.6027 129.252 73.6199C127.938 74.6795 126.37 75.4424 124.547 75.9934C122.64 76.5868 120.648 76.8834 118.486 76.8834Z" fill="white"/>
<path d="M126.497 97.482C112.553 107.781 92.2925 113.249 74.873 113.249C50.4596 113.249 28.4623 104.221 11.8477 89.217C10.5338 88.0305 11.7205 86.4198 13.2887 87.3525C31.2596 97.779 53.4265 104.094 76.3565 104.094C91.8265 104.094 108.823 100.873 124.462 94.261C126.794 93.2015 128.786 95.787 126.497 97.482ZM132.304 90.87C130.523 88.5815 120.521 89.768 115.986 90.319C114.629 90.4885 114.417 89.302 115.647 88.412C123.615 82.8172 136.712 84.4278 138.237 86.2927C139.763 88.2 137.813 101.296 130.354 107.569C129.21 108.544 128.108 108.036 128.616 106.764C130.312 102.568 134.084 93.1165 132.304 90.87Z" fill="#FF9900"/>
</g>
</g>
<defs>
<clipPath id="clip0_3_40">
<rect width="128" height="76.5" fill="white" transform="translate(11 37)"/>
</clipPath>
</defs>
</svg>
