<svg width="255" height="351" viewBox="0 0 255 351" fill="none" xmlns="http://www.w3.org/2000/svg">
<path d="M250.741 169.277C250.741 238.735 195.671 295.095 127.702 295.095C59.7333 295.095 4.66357 238.735 4.66357 169.277C4.66357 99.8201 59.7333 43.4604 127.702 43.4604C195.671 43.4604 250.741 99.8201 250.741 169.277Z" fill="#D33833"/>
<path d="M9.72403 200.434C9.72403 200.434 0.793793 69.2589 121.749 65.4884L113.315 51.3984L47.7271 73.4263L28.9736 94.9581L12.6015 126.313L3.27441 162.828L6.05271 187.237" fill="#EF3D3A"/>
<path d="M43.4605 83.448C21.9287 105.575 8.53338 136.037 8.53338 169.774C8.53338 203.51 21.9287 233.972 43.4605 256.099C65.0915 278.226 94.7597 291.82 127.702 291.82C160.645 291.82 190.313 278.226 211.944 256.099C233.476 233.972 246.871 203.51 246.871 169.774C246.871 136.037 233.476 105.575 211.944 83.448C190.313 61.4201 160.645 47.7271 127.702 47.7271C94.859 47.7271 65.0915 61.3209 43.4605 83.448ZM38.0031 261.358C15.0822 237.941 0.893066 205.495 0.893066 169.774C0.893066 134.053 15.0822 101.606 38.0031 78.0899C60.9241 54.6728 92.676 40.0868 127.702 40.0868C162.729 40.0868 194.481 54.6728 217.402 78.0899C240.323 101.507 254.512 133.953 254.512 169.774C254.512 205.495 240.323 237.941 217.402 261.358C194.481 284.874 162.729 299.361 127.702 299.361C92.676 299.361 60.9241 284.874 38.0031 261.358Z" fill="#231F20"/>
<path d="M179.498 169.972L160.744 172.75L135.442 175.628L119.07 176.025L103.095 175.529L90.89 171.758L80.0745 160.05L71.6404 136.136L69.7551 130.977L58.5427 127.206L51.9939 116.391L47.3303 100.912L52.49 87.3178L64.6947 83.0511L74.5179 87.7147L79.1815 98.0341L84.8373 97.1411L86.7226 94.7597L84.8373 83.9442L84.3412 70.3504L87.1195 51.5969L87.0202 40.8806L95.5536 27.1876L110.537 16.3721L136.732 5.15967L165.805 9.42633L191.107 27.6837L202.816 46.4372L210.357 60.031L212.242 93.7674L206.586 122.84L196.267 148.639L186.543 162.431" fill="#F0D6B7"/>
<path d="M163.622 251.039L96.645 253.817V265.03L102.301 304.422L99.5225 307.696L52.6884 291.721L49.414 286.065L44.7505 233.079L33.7365 201.327L31.3551 193.786L68.8621 167.988L80.5706 163.324L90.89 176.025L99.8202 183.963L110.14 187.237L114.803 188.626L120.459 213.036L124.726 218.195L135.541 214.425L128 229.011L168.682 248.261L163.622 251.039Z" fill="#335061"/>
<path d="M52.49 87.5163L64.6947 83.2497L74.5179 87.9132L79.1815 98.2326L84.8373 97.3396L86.2264 91.6838L83.4481 80.8683L86.2264 55.0698L83.845 40.9799L92.2792 31.1567L110.537 16.6698L105.377 9.62488L79.5784 22.3257L68.7629 30.7598L62.7102 43.8574L53.383 56.5582L50.6047 71.5412L52.49 87.5163Z" fill="#6D6B6D"/>
<path d="M71.7396 43.4605C71.7396 43.4605 78.7845 26.0962 106.865 17.6621C134.946 9.22798 108.254 11.6094 108.254 11.6094L77.7923 23.3179L66.0838 35.0264L60.9241 44.3536L71.7396 43.4605Z" fill="#DCD9D8"/>
<path d="M57.6497 84.2419C57.6497 84.2419 47.8264 51.3985 85.3334 46.7349L83.9443 41.0791L58.1458 47.1318L50.6047 71.5411L52.49 87.5163L57.6497 84.2419Z" fill="#DCD9D8"/>
<path d="M72.6326 127.802L78.7845 121.848C78.7845 121.848 81.5628 122.146 82.0589 125.42C82.555 128.695 83.9442 158.264 104.087 174.14C105.972 175.628 89.1039 171.758 89.1039 171.758L74.1209 148.341" fill="#F7E4CD"/>
<path d="M158.859 118.871C158.859 118.871 159.95 104.682 163.82 105.774C167.69 106.865 167.69 110.735 167.69 110.735C167.69 110.735 158.363 116.688 158.859 118.871Z" fill="#F7E4CD"/>
<path d="M197.755 66.8776C197.755 66.8776 190.016 68.4652 189.321 75.3117C188.626 82.1582 197.755 76.7008 199.144 76.2047" fill="#F7E4CD"/>
<path d="M141.098 67.3737C141.098 67.3737 130.778 68.7628 130.778 75.3116C130.778 81.8605 142.487 81.3644 145.761 78.5861" fill="#F7E4CD"/>
<path d="M77.3954 97.8357C77.3954 97.8357 59.6341 87.0202 57.7489 97.3396C55.8636 107.659 51.6961 115.101 60.5271 125.916L54.4744 124.031L48.8186 109.544L46.9333 95.4543L57.7489 84.2419L69.9535 85.135L76.9985 90.7908L77.3954 97.8357Z" fill="#F7E4CD"/>
<path d="M85.8295 68.2667C85.8295 68.2667 93.7675 26.9891 134.053 19.0512C167.194 12.5023 184.657 20.4403 191.206 27.9814C191.206 27.9814 161.637 -7.14419 133.557 3.57209C105.476 14.3876 84.8372 34.0341 85.3333 46.6357C86.1271 68.2667 85.8295 68.2667 85.8295 68.2667Z" fill="#F7E4CD"/>
<path d="M194.481 32.645C194.481 32.645 180.887 32.1489 180.391 44.3535C180.391 44.3535 180.391 46.2388 181.284 48.1241C181.284 48.1241 192.099 35.9194 198.648 42.4683" fill="#F7E4CD"/>
<path d="M135.045 49.4139C135.045 49.4139 132.664 30.7597 116.788 41.5752C106.468 48.6201 107.46 58.4434 109.247 60.3287C111.132 62.2139 110.636 65.9845 112.025 63.4046C113.414 60.8248 113.017 52.3907 118.177 50.0093C123.237 47.6279 131.771 45.048 135.045 49.4139Z" fill="#F7E4CD"/>
<path d="M90.9892 176.025L46.9334 195.671C46.9334 195.671 65.1908 268.304 55.8636 290.828L49.3148 288.446L48.8187 260.763L36.614 208.372L31.4543 193.885L77.3954 162.927L90.9892 176.025Z" fill="#49728B"/>
<path d="M95.4543 216.211L101.705 223.851V251.932H94.2636C94.2636 251.932 93.3706 232.285 93.3706 229.904C93.3706 227.523 94.2636 219.088 94.2636 219.088" fill="#49728B"/>
<path d="M95.6527 256.198L74.5178 257.091L80.5705 261.358L95.5535 263.74" fill="#49728B"/>
<path d="M167.789 251.535L185.154 251.039L189.42 294.102L171.659 296.484L167.789 251.535Z" fill="#335061"/>
<path d="M172.453 251.535L198.648 250.146C198.648 250.146 209.464 222.958 209.464 221.569C209.464 220.18 218.791 182.177 218.791 182.177L197.656 160.149L193.389 156.378L182.177 167.591V211.15L172.453 251.535Z" fill="#335061"/>
<path d="M184.161 248.26L167.789 251.535L170.171 264.633C176.223 267.411 186.543 259.969 186.543 259.969" fill="#49728B"/>
<path d="M184.657 166.202L217.501 190.611L218.394 179.398L193.588 156.478L184.657 166.202Z" fill="#49728B"/>
<path d="M111.926 343.814L102.202 304.422L97.3396 275.349L96.5458 253.817L140.502 251.436H167.789L165.309 300.651L169.575 338.654L169.079 345.699L133.457 348.478L111.926 343.814Z" fill="white"/>
<path d="M161.737 251.039C161.737 251.039 159.355 299.758 166.4 334.487C166.4 334.487 152.31 343.417 131.771 345.699L171.163 344.31L175.826 341.532L170.171 264.732L168.682 248.26" fill="#DCD9D8"/>
<path d="M190.115 290.431L208.372 285.271L243.002 283.386L248.161 267.411L238.834 239.727L228.019 238.338L213.036 243.002L198.747 250.047L191.107 248.657L185.154 251.039" fill="white"/>
<path d="M189.817 281.005C189.817 281.005 202.022 275.349 203.907 275.845L198.747 250.047L204.8 247.665C204.8 247.665 209.067 272.074 209.067 274.853C209.067 274.853 235.262 276.242 237.644 276.242C237.644 276.242 243.299 265.426 241.91 254.214L247.07 269.197L247.566 277.631L240.025 288.843L231.591 290.729L217.501 290.233L212.837 284.18L196.465 286.561L191.306 288.447" fill="#DCD9D8"/>
<path d="M171.361 247.764L161.042 221.569L150.226 206.09C150.226 206.09 152.608 199.541 155.882 199.541H166.698L177.017 203.312L176.124 220.676L171.361 247.764Z" fill="white"/>
<path d="M173.445 238.834C173.445 238.834 160.347 213.532 160.347 209.761C160.347 209.761 162.729 204.106 166.003 205.495C169.278 206.884 176.323 210.654 176.323 210.654V201.724L160.347 198.45L149.532 199.839L167.789 243.101L171.56 243.597" fill="#DCD9D8"/>
<path d="M116.093 177.017L103.095 175.628L90.89 171.857V176.124L96.8435 182.673L115.597 191.107" fill="white"/>
<path d="M95.1566 178.406C95.1566 178.406 109.643 184.459 114.406 183.07L114.902 188.726L101.805 185.947L93.8667 180.292L95.1566 178.406Z" fill="#DCD9D8"/>
<path d="M190.115 201.129C182.177 200.93 174.933 199.938 168.682 198.152C169.079 195.572 168.285 193.091 168.98 191.206C170.766 189.916 173.644 189.916 176.323 189.619C174.04 188.527 170.766 188.031 168.186 188.726C168.087 186.94 167.293 185.848 166.797 184.459C171.262 182.871 181.78 172.453 187.733 175.826C190.611 177.513 191.802 186.84 192 191.504C192.199 195.274 191.603 199.045 190.115 201.129Z" fill="#D33833"/>
<path d="M190.115 201.129C182.177 200.93 174.933 199.938 168.682 198.152C169.079 195.572 168.285 193.091 168.98 191.206C170.766 189.916 173.644 189.916 176.323 189.619C174.04 188.527 170.766 188.031 168.186 188.726C168.087 186.94 167.293 185.848 166.797 184.459C171.262 182.871 181.78 172.453 187.733 175.826C190.611 177.513 191.802 186.84 192 191.504C192.199 195.274 191.603 199.045 190.115 201.129Z" fill="black" stroke="#D33833" stroke-width="2"/>
<path d="M152.112 188.13C152.112 188.726 152.112 189.321 152.012 189.916C149.532 191.504 145.563 191.504 142.785 192.893C146.754 193.092 149.929 194.084 152.707 195.374C152.608 196.862 152.608 198.45 152.509 199.938C147.944 203.014 143.777 207.678 138.419 210.654C135.839 212.043 127.008 215.616 124.329 214.921C122.84 214.524 122.642 212.639 122.047 210.853C120.757 207.082 117.78 200.93 117.482 195.175C117.185 187.932 116.391 175.727 124.23 177.216C130.58 178.406 137.923 181.284 142.785 183.963C145.861 185.749 147.547 187.733 152.112 188.13Z" fill="#D33833"/>
<path d="M152.112 188.13C152.112 188.726 152.112 189.321 152.012 189.916C149.532 191.504 145.563 191.504 142.785 192.893C146.754 193.092 149.929 194.084 152.707 195.374C152.608 196.862 152.608 198.45 152.509 199.938C147.944 203.014 143.777 207.678 138.419 210.654C135.839 212.043 127.008 215.616 124.329 214.921C122.84 214.524 122.642 212.639 122.047 210.853C120.757 207.082 117.78 200.93 117.482 195.175C117.185 187.932 116.391 175.727 124.23 177.216C130.58 178.406 137.923 181.284 142.785 183.963C145.861 185.749 147.547 187.733 152.112 188.13Z" fill="black" stroke="#D33833" stroke-width="2"/>
<path d="M156.577 196.763C155.882 192.794 155.088 191.702 155.386 188.23C166.003 181.185 167.888 200.335 156.577 196.763Z" fill="#D33833"/>
<path d="M156.577 196.763C155.882 192.794 155.088 191.702 155.386 188.23C166.003 181.185 167.888 200.335 156.577 196.763Z" fill="black" stroke="#D33833" stroke-width="2"/>
<path d="M171.857 199.938C171.857 199.938 168.583 195.274 170.964 193.885C173.346 192.496 175.628 193.885 177.017 191.504C178.406 189.123 177.017 187.733 177.513 184.955C178.009 182.177 180.292 181.681 182.673 181.185C185.054 180.688 191.603 179.795 192.496 182.078L189.718 173.643L184.062 171.758L166.301 182.078L165.408 187.237V197.557" fill="#EF3D3A"/>
<path d="M122.642 215.417C122.047 208.074 121.451 200.831 120.856 193.488C119.864 182.574 123.436 184.459 132.961 184.459C134.45 184.459 141.892 186.146 142.388 187.237C144.967 192.496 138.121 191.305 145.364 195.274C151.417 198.549 162.233 193.29 159.752 185.848C158.363 184.161 152.608 185.352 150.524 184.26C146.853 182.375 143.181 180.49 139.51 178.605C134.847 176.223 124.13 172.651 119.169 176.025C106.567 184.558 119.963 205.991 124.428 214.921" fill="#EF3D3A"/>
<path d="M135.045 49.4139C122.245 46.4372 115.895 54.7721 112.025 63.4046C108.552 62.6108 109.941 57.8481 110.834 55.4667C113.116 49.2155 122.344 40.7814 129.885 41.9721C133.061 42.369 137.426 45.3457 135.045 49.4139Z" fill="#231F20"/>
<path d="M197.259 63.9008H197.854C200.732 69.8542 203.212 76.2046 206.884 81.5628C204.403 87.3178 188.428 92.2791 188.626 82.1581C192.099 80.6698 198.053 81.8604 201.129 79.8759C199.343 75.0139 196.862 70.8465 197.259 63.9008Z" fill="#231F20"/>
<path d="M141.495 64.0992C144.273 69.1597 145.166 74.4186 149.036 78.1892C150.822 79.876 154.195 81.9597 152.509 86.7225C152.112 87.814 149.234 90.2946 147.547 90.7907C141.495 92.5768 127.305 91.1876 132.068 83.5473C137.129 83.7458 143.876 86.8217 147.647 83.1504C144.769 78.5861 139.609 69.4574 141.495 64.0992Z" fill="#231F20"/>
<path d="M194.977 115.101C185.848 120.955 175.628 127.405 160.546 125.916C157.371 123.138 156.081 116.887 159.256 112.819C160.843 115.597 159.851 120.757 164.416 121.55C172.949 123.039 182.871 116.292 189.023 114.009C192.794 107.56 188.726 105.278 185.253 101.11C178.208 92.676 168.881 82.1582 169.178 69.5567C172.056 67.4729 172.254 72.7319 172.651 73.6249C176.323 82.1582 185.55 93.1722 192.198 100.515C193.885 102.301 196.564 104.087 196.862 105.278C197.755 108.651 194.58 112.819 194.977 115.101Z" fill="#231F20"/>
<path d="M74.1209 108.949C71.2434 107.262 70.5489 100.118 67.1752 99.9194C62.3132 99.6217 63.2062 109.247 63.2062 114.902C59.9318 111.926 59.3365 102.598 61.7178 97.8357C58.9396 96.4465 57.7489 99.324 56.1613 100.316C58.245 85.9287 77.2961 93.6682 74.1209 108.949Z" fill="#231F20"/>
<path d="M200.732 121.154C196.465 129.29 190.412 138.22 177.91 138.518C177.612 135.938 177.414 131.87 177.91 130.282C187.535 129.29 193.488 124.428 200.732 121.154Z" fill="#231F20"/>
<path d="M140.8 126.412C148.738 130.58 163.423 131.076 174.338 130.778C174.933 133.16 174.933 136.137 174.933 139.014C160.943 139.609 144.471 136.137 140.8 126.412Z" fill="#231F20"/>
<path d="M139.312 134.152C144.868 148.043 163.82 146.456 179.795 146.059C179.101 147.845 177.612 150.028 175.628 150.723C170.468 152.806 156.378 154.394 149.234 150.623C144.769 148.242 141.792 142.785 139.312 139.609C138.22 138.121 132.267 134.251 139.312 134.152Z" fill="#231F20"/>
<path d="M194.282 210.654C187.833 221.767 181.581 233.178 173.941 242.902C177.116 233.476 178.506 217.6 179.002 205.495C185.749 202.319 191.504 206.189 194.282 210.654Z" fill="#81B0C4"/>
<path d="M229.11 250.543C221.867 252.031 216.806 259.076 209.662 258.58C213.631 253.123 220.378 250.741 229.11 250.543Z" fill="#231F20"/>
<path d="M232.285 261.854C226.332 262.45 219.386 263.442 213.433 262.946C216.31 258.58 227.225 260.167 232.285 261.854Z" fill="#231F20"/>
<path d="M234.369 271.678C227.721 271.777 219.485 271.678 213.135 271.181C216.905 267.113 230.102 269.693 234.369 271.678Z" fill="#231F20"/>
<path d="M181.78 298.468C182.772 306.803 186.047 315.237 185.65 324.366C181.978 325.557 179.895 326.648 174.933 326.648C174.636 318.909 173.544 307.002 173.842 299.56C176.223 299.758 179.795 297.873 181.78 298.468Z" fill="#DCD9D8"/>
<path d="M171.064 175.429C167.69 177.612 164.912 180.291 161.637 182.673C154.493 183.07 150.623 182.177 145.464 178.109C145.563 177.811 146.059 177.91 146.059 177.513C153.699 180.887 163.423 176.124 171.064 175.429Z" fill="#F0D6B7"/>
<path d="M131.175 227.324C133.259 218.295 141.495 213.532 148.937 208.571C156.577 218.295 161.24 230.797 166.4 242.902C154.195 239.231 141.792 233.377 131.175 227.324Z" fill="#81B0C4"/>
<path d="M173.842 299.659C173.544 307.101 174.536 318.909 174.933 326.747C179.895 326.747 181.978 325.656 185.65 324.465C186.047 315.336 182.772 306.902 181.78 298.567C179.795 297.873 176.223 299.758 173.842 299.659ZM97.2403 257.588C100.515 287.454 105.178 312.459 113.811 338.952C132.961 344.806 155.981 345.302 172.949 340.043C169.873 325.16 171.163 307.002 169.377 291.026C167.988 279.02 168.682 267.014 166.797 254.809C146.257 250.543 117.284 253.817 97.2403 257.588ZM171.659 255.008C171.461 267.808 172.254 280.509 173.247 293.309C178.208 292.614 181.482 292.118 186.047 291.026C184.558 278.723 184.757 264.732 181.681 253.817C178.208 253.916 175.132 253.817 171.659 255.008ZM196.564 252.924C194.183 252.428 191.504 252.924 189.321 252.924C190.412 263.343 192.893 274.853 193.786 285.867C197.259 285.966 199.144 284.279 202.022 283.783C202.22 274.158 201.228 260.862 196.564 252.924ZM234.369 287.454C241.712 285.668 246.276 276.738 244.192 267.51C242.803 261.358 240.422 249.65 237.743 245.681C235.857 242.803 230.598 238.933 226.332 241.612C219.485 245.978 207.479 247.268 202.518 252.527C204.998 260.862 205.792 272.174 206.785 282.691C215.318 283.188 225.736 280.31 232.881 283.386C227.919 284.974 221.569 284.974 217.302 287.355C220.874 289.042 229.011 288.744 234.369 287.454ZM166.301 242.902C161.141 230.797 156.478 218.295 148.837 208.571C141.395 213.532 133.259 218.295 131.076 227.324C141.792 233.377 154.195 239.231 166.301 242.902ZM179.002 205.495C178.505 217.6 177.116 233.476 173.941 242.902C181.581 233.079 187.833 221.767 194.282 210.654C191.504 206.189 185.749 202.319 179.002 205.495ZM164.614 200.434C161.736 200.136 159.256 203.808 155.485 202.22C154.592 203.212 153.798 204.205 152.905 205.197C161.24 215.318 165.11 229.606 171.56 241.414C175.033 230.003 174.636 217.6 175.429 205.197C170.667 205.395 167.988 200.732 164.614 200.434ZM155.386 188.229C155.088 191.702 155.882 192.794 156.577 196.763C167.888 200.335 166.003 181.185 155.386 188.229ZM142.785 184.062C137.923 181.383 130.58 178.505 124.229 177.315C116.391 175.826 117.185 188.031 117.482 195.274C117.78 201.029 120.757 207.082 122.047 210.952C122.642 212.738 122.84 214.623 124.329 215.02C127.008 215.616 135.938 212.143 138.419 210.754C143.777 207.876 147.944 203.212 152.509 200.037C152.608 198.549 152.608 196.961 152.707 195.473C149.929 194.084 146.853 193.191 142.785 192.992C145.464 191.603 149.532 191.603 152.012 190.016C152.012 189.42 152.012 188.825 152.112 188.229C147.547 187.733 145.86 185.749 142.785 184.062ZM96.1489 175.628C92.0806 179.795 107.56 185.352 112.422 185.65C112.422 183.07 113.91 180.589 113.612 178.704C107.758 177.712 100.118 178.406 96.1489 175.628ZM146.158 177.513C146.158 177.91 145.662 177.811 145.563 178.109C150.822 182.177 154.692 183.07 161.736 182.673C164.912 180.391 167.789 177.612 171.163 175.429C163.423 176.124 153.699 180.887 146.158 177.513ZM192 191.405C191.802 186.84 190.611 177.414 187.733 175.727C181.78 172.254 171.262 182.772 166.797 184.36C167.293 185.749 168.087 186.84 168.186 188.626C170.865 187.932 174.04 188.428 176.323 189.519C173.643 189.817 170.766 189.817 168.98 191.107C168.385 192.992 169.178 195.473 168.682 198.053C174.933 199.839 182.177 200.732 190.115 201.029C191.603 199.045 192.198 195.274 192 191.405ZM89.3024 179.597C88.0124 178.704 79.3799 167.492 78.1892 167.988C62.6109 174.14 48.0248 184.757 35.0264 194.878C47.4295 221.569 52.49 254.214 53.383 285.668C67.5721 292.316 80.0744 301.941 99.4233 302.933C97.1411 287.157 95.1566 272.967 93.8667 258.084C89.0047 256 82.0589 258.183 77.4946 257.488C77.4946 252.031 84.4403 255.107 85.0357 251.436C85.4326 248.657 81.1659 248.459 82.5551 244.093C86.1272 245.383 88.0124 248.261 91.783 249.352C95.2558 241.811 91.783 228.416 92.2791 222.065C92.3783 220.874 92.8745 215.516 95.5535 216.409C97.9349 217.203 95.4543 230.797 95.6527 236.75C95.8512 242.307 94.9582 247.566 97.2403 251.039C115.895 248.459 134.847 246.871 155.088 246.276C150.623 244.391 145.364 242.605 139.609 239.33C136.434 237.544 126.611 233.873 125.718 230.896C124.229 226.133 129.488 223.653 130.381 219.585C120.955 224.744 119.169 214.623 116.887 207.578C114.902 201.129 113.712 196.267 113.216 192.595C104.98 188.428 96.2481 184.558 89.3024 179.597ZM183.764 169.278C196.763 163.026 199.144 192.794 193.985 202.419C194.778 205.296 197.457 206.388 198.549 208.967C191.305 221.966 183.268 234.071 175.826 246.871C181.284 243.398 189.222 246.276 195.671 243.696C198.053 242.803 199.74 237.346 201.526 232.98C206.487 221.073 211.647 205.991 213.929 194.679C214.425 192.099 215.913 186.443 215.516 184.161C214.921 179.994 209.364 176.918 206.487 174.437C201.228 169.674 197.954 165.606 192.397 161.141C190.313 164.416 185.55 166.598 183.764 169.278ZM59.6341 54.0775C53.4822 60.9241 54.7721 73.6248 55.4667 82.7535C66.6791 75.7085 81.4636 83.3489 81.3644 95.2558C86.7225 95.1566 83.3489 88.6078 82.3566 84.3411C79.1814 70.5489 87.7148 55.6651 82.7535 43.0636C73.1287 43.8574 65.29 47.7272 59.6341 54.0775ZM103.888 14.4868C89.8977 18.4558 71.938 28.676 66.183 41.2775C70.6481 40.583 73.7241 38.4 78.09 38.1024C79.7768 38.0031 81.9597 38.7969 83.845 38.3008C87.6155 37.3086 90.89 28.7752 93.7675 25.6C96.5458 22.5241 99.9194 21.1349 102.202 18.3566C103.69 17.662 105.873 17.662 105.972 15.4791C105.377 14.7845 104.682 14.2884 103.888 14.4868ZM176.819 18.2574C162.233 10.0217 137.625 3.86979 122.146 11.6093C109.643 17.8605 92.7752 28.1799 87.0202 41.1783C92.3783 53.7799 85.4326 65.2899 84.9365 78.0899C84.738 84.9365 88.1117 90.7907 88.4093 98.2326C86.5241 101.309 80.9675 101.606 77.0977 101.408C75.8078 94.8589 73.5256 87.5163 66.7783 86.7225C57.2527 85.631 50.2078 93.569 49.8109 101.805C49.3148 111.529 57.2527 127.603 68.5644 126.512C72.9303 126.115 74.0217 121.749 78.7845 121.749C81.3644 126.909 74.8155 128.496 74.121 132.167C73.9225 133.16 74.6171 136.831 75.1132 138.617C77.1969 147.051 81.7613 158.065 86.2264 164.515C91.9814 172.75 103.194 173.941 115.299 174.735C117.482 170.071 125.42 170.468 130.58 171.659C124.329 169.178 118.574 163.225 113.811 157.966C108.354 151.913 102.797 145.464 102.499 137.526C112.918 151.913 121.451 164.515 140.304 170.865C154.592 175.628 171.262 168.682 182.276 160.943C186.84 157.767 189.519 152.608 192.794 148.043C204.899 130.58 210.555 105.774 209.364 81.662C208.868 71.7396 208.868 61.8171 205.495 55.169C202.022 48.2233 190.214 41.8729 183.268 48.2233C181.978 41.3768 189.023 37.2093 197.259 39.6899C191.405 32.0496 185.253 23.0202 176.819 18.2574ZM204.006 242.605C215.417 236.949 236.651 227.423 243.696 242.605C246.375 248.26 249.451 257.687 250.741 263.541C252.626 271.678 248.657 288.943 240.223 291.622C232.781 294.003 224.149 293.904 215.219 292.118C214.127 291.225 213.036 289.736 212.143 288.149C205.792 287.95 199.74 288.447 194.778 291.126C195.274 295.888 192.099 296.583 189.023 297.575C186.84 306.406 193.488 317.916 191.901 325.854C190.809 331.609 183.764 332.502 178.605 333.495C178.406 336.67 178.803 339.349 179.2 342.028C178.009 346.394 172.75 348.874 167.69 349.47C151.119 351.454 126.016 352.347 110.14 346.592C105.674 335.678 102.202 322.481 98.5303 310.078C83.0512 311.764 70.4496 303.429 58.6419 297.873C54.5737 295.988 48.9179 294.896 47.3303 291.622C45.8419 288.447 46.4372 282.394 46.0403 276.738C45.1473 262.152 44.2543 248.062 40.4838 233.178C38.7969 226.431 35.721 220.577 33.6372 214.127C31.6527 208.174 28.2791 200.732 27.3861 194.778C26.0962 185.947 34.431 185.451 39.69 181.581C47.9256 175.628 54.3752 172.354 63.3055 166.995C65.9845 165.408 73.9225 161.439 74.8155 159.554C76.6016 155.882 71.7396 150.723 70.4496 147.845C68.3659 143.281 67.2745 139.411 66.9768 134.946C59.5349 133.755 53.7799 129.29 50.4062 124.329C44.7504 115.994 40.7814 100.614 45.7427 89.0047C46.1396 88.1117 48.0248 86.2264 48.3225 84.8372C48.9179 82.0589 47.231 78.3876 47.1318 75.4109C46.6357 60.2295 49.7117 47.1318 59.9318 42.5675C64.0993 25.9969 78.983 20.5396 92.9737 12.3039C98.2326 9.22793 103.988 7.24344 109.941 5.06049C131.274 -2.77827 164.118 -1.2899 181.879 12.1055C189.42 17.7613 201.426 29.7675 205.693 38.4993C217.104 61.4202 216.211 99.8202 208.273 127.802C207.181 131.572 205.693 137.029 203.51 141.594C202.022 144.769 197.358 151.02 197.854 153.798C198.45 156.676 208.571 164.316 210.754 166.4C214.623 170.171 222.065 175.132 222.66 179.895C223.355 184.955 220.478 191.901 218.989 196.763C214.226 213.036 209.464 228.019 204.006 242.605Z" fill="#231F20"/>
<path d="M128.099 129.885C128.695 129.091 132.068 127.802 136.831 130.084C136.831 130.084 131.175 130.977 131.671 140.403L129.29 139.907C129.389 140.006 126.909 131.473 128.099 129.885Z" fill="#F7E4CD"/>
<path d="M169.178 210.456C169.178 211.845 167.988 213.036 166.599 213.036C165.209 213.036 164.019 211.845 164.019 210.456C164.019 209.067 165.209 207.876 166.599 207.876C168.087 207.876 169.178 209.067 169.178 210.456Z" fill="#1D1919"/>
<path d="M171.758 222.462C171.758 223.851 170.568 225.042 169.178 225.042C167.789 225.042 166.599 223.851 166.599 222.462C166.599 221.073 167.789 219.882 169.178 219.882C170.667 219.882 171.758 220.974 171.758 222.462Z" fill="#1D1919"/>
</svg>
